<svg xmlns="http://www.w3.org/2000/svg" viewBox="0 0 235 60" height="60" width="235">
  <g transform="translate(0, 5) scale(0.235)">
    <g clip-path="url(#clip0_2327_5794)">
      <path fill="white" d="M341.308 33.3728H350.206V59.1831H361.332L371.568 18.243V1.78065H341.308V33.3728ZM206.031 68.5278C212.706 68.5278 215.819 73.8681 215.819 115.699H194.017C194.906 73.8681 198.466 68.5278 206.031 68.5278ZM246.525 152.633H232.285V157.529C232.285 177.999 226.498 187.788 214.483 187.788C200.69 187.788 194.015 178.887 194.015 132.162V128.604H248.303C248.303 73.8681 236.288 52.5085 206.03 52.5085C175.77 52.5085 156.19 83.6576 156.19 131.72C156.19 179.333 174.879 205.142 206.919 205.142C234.509 205.142 246.524 189.567 246.524 156.639V152.633H246.525ZM624.43 68.5278C631.104 68.5278 634.219 73.8681 634.219 115.699H613.642C614.531 73.8681 616.864 68.5278 624.43 68.5278ZM664.923 152.633H650.683V157.529C650.683 177.999 644.898 187.788 632.883 187.788C619.088 187.788 613.64 178.887 613.64 132.162V128.604H666.702C666.702 73.8681 654.688 52.5085 624.428 52.5085C594.169 52.5085 574.59 83.6576 574.59 131.719C574.59 179.333 593.281 205.142 625.319 205.142C652.909 205.142 664.923 189.567 664.923 156.639V152.633ZM861.608 205.142C881.634 205.142 890.089 192.682 890.089 174.881V152.633H876.74V174.881C876.74 184.229 875.404 187.34 870.955 187.34C866.949 187.34 865.615 184.67 865.615 176.215V69.4173H890.089V55.6234H866.059V14.2386H852.264L831.794 57.4024H819.779V68.9726H830.458V167.76C830.458 193.572 834.91 205.142 861.608 205.142ZM758.37 92.1127C758.37 64.5234 745.912 52.9549 719.213 52.9549C692.513 52.9549 674.268 72.0891 674.268 94.7846V103.684H704.974V82.768C704.974 70.7532 707.644 66.3041 714.319 66.3041C720.995 66.3041 723.663 70.3084 723.663 82.768V107.244C683.17 121.036 670.71 131.274 670.71 165.538C670.71 192.238 681.389 205.142 699.635 205.142C715.21 205.142 722.331 194.461 726.335 187.788V202.472H765.939V190.455H758.374V92.1127H758.37ZM990.21 190.455V84.9918C990.21 63.1875 980.421 52.9533 963.066 52.9533C942.151 52.9533 933.696 68.5278 933.696 68.5278V-6.11371e-06L889.643 4.89554V16.464H899.877V190.455H892.758V202.472H941.708V190.455H934.589V98.3426C934.589 82.3233 939.038 75.6487 947.047 75.6487C952.832 75.6487 955.056 79.2084 955.056 88.1084V190.455H947.047V202.472H1000V190.455H990.21ZM723.662 119.702V165.091C723.662 178.442 720.993 183.784 713.428 183.784C707.644 183.784 704.972 178.887 704.972 162.869C704.972 135.723 707.198 129.048 723.662 119.702ZM567.808 190.455V13.7955H578.044V2.22373H517.078V13.7938H529.538V96.5619H490.38V13.7955H503.285V2.22373H441.43V13.7938H452.11V190.454H441.43V202.47H503.285V190.454H490.38V110.359H529.538V190.455H517.078V202.472H578.044V190.455H567.808ZM812.66 190.455V-6.11371e-06L766.826 4.89554V16.464H777.951V190.455H770.832V202.472H823.34V190.455H812.66ZM439.206 162.868C439.206 115.699 388.478 112.583 388.478 81.4322C388.478 70.7532 393.817 65.4129 402.272 65.4129C415.176 65.4129 421.852 78.3172 422.742 105.46H434.31V60.9621C434.31 60.9621 421.406 52.9533 401.825 52.9533C378.242 52.9533 359.106 66.3024 359.106 93.447C359.106 137.947 408.5 144.178 408.5 174.436C408.5 186.453 402.715 192.238 393.369 192.238C379.128 192.238 372.009 179.778 371.12 149.072H359.551V197.133C359.551 197.133 373.791 205.142 394.704 205.142C420.516 205.142 439.206 190.455 439.206 162.868ZM149.517 190.455V13.7955H158.862V2.22373H106.798L80.9891 114.808L53.3997 2.22373H0V13.7938H11.1253V190.454H0V202.47H40.9384V190.454H28.0341V66.3024L60.519 202.47H79.2084L111.247 65.4129V190.454H99.2321V202.47H158.862V190.454H149.517V190.455ZM346.647 190.455V84.9918C346.647 63.1875 336.859 52.9533 319.949 52.9533C299.034 52.9533 290.578 68.5278 290.578 68.5278V52.9533L246.079 57.8489V69.8637H256.315V190.455H245.636V202.472H298.587V190.455H291.468V98.3426C291.468 82.3233 295.919 75.6487 303.928 75.6487C309.713 75.6487 311.936 79.2084 311.936 88.1084V190.455H303.928V202.472H353.766V190.455H346.647Z"></path>
    </g>
    <defs>
      <clipPath id="clip0_2327_5794">
        <rect fill="white" height="205.142" width="1000"></rect>
      </clipPath>
    </defs>
  </g>
</svg>
